<?xml version="1.0" encoding="utf-8"?>
<!-- Generator: Adobe Illustrator 14.0.0, SVG Export Plug-In . SVG Version: 6.00 Build 43363)  -->
<!DOCTYPE svg PUBLIC "-//W3C//DTD SVG 1.1//EN" "http://www.w3.org/Graphics/SVG/1.1/DTD/svg11.dtd">
<svg version="1.1" id="vanper02nowingsvg" xmlns="http://www.w3.org/2000/svg" xmlns:xlink="http://www.w3.org/1999/xlink" x="0px" y="0px"
	 width="1418px" height="1023.99px" viewBox="0 0 1418 1023.99" enable-background="new 0 0 1418 1023.99" xml:space="preserve">
<rect x="635.203" y="584.485" fill="#FFFFFF" width="154.136" height="80.084"/>
<g>
	<g id="head_1_">
		<g>
			<path fill="#FFFFFF" stroke="#000000" stroke-width="5" stroke-linecap="round" stroke-linejoin="round" d="M852.838,269.618
				c-4.368,18.853-24.128,36.131-24.128,36.131s11.725-18.504,12.111-28.76c0.432-11.458-4.685-18.827-13.854-27.873
				c0.148,3.062,0.162,6.003,0.005,8.757c-2.187,38.294-53.267,72.328-53.267,72.328s24.438-29.308,27.433-46.934
				c2.214-13.025-0.175-23.508-6.027-34.234c-0.266,4.902-1.056,9.675-2.521,14.176c-16.291,49.957-80.144,42.441-80.144,42.441
				s45.425-5.275,48.959-38.082c2.521-23.406-7.83-42.956-31.944-57.953c7.183,11.027,15.116,26.78,13.487,40.779
				c-4.029,34.619-46.529,38.119-46.529,38.119s28.839-9.396,26.828-31.188c-1.67-18.101-13.997-30.511-37.746-36.334
				c2.564,12.757,4.626,27.833,3.307,39.409c-3.889,34.112-34.711,58.701-34.711,58.701s7.035-19.887,8.012-35.771
				c0.829-13.515-1.866-27.064-12.308-41.956c0.141,11.415-0.424,26.499-3.622,37.087c-6.51,21.551-33.045,41.542-33.045,41.542
				s4.587-10.468,7.23-23.033c2.896-13.763,1.909-26.312-3.146-40.896c-1.176,10.782-3.848,31.044-8.075,40.019
				c-7.977,16.918-29.562,25.918-29.562,25.918s7.948-10.52,12.161-20.455c4.693-11.07,5.509-19.497,4.563-31.729
				c-0.813,3.064-1.705,5.787-2.681,7.889c-7.209,15.545-29.561,25.919-29.561,25.919s6.199-7.417,10.161-17.457
				c4.502-11.407,3.965-24.354,0.956-37.94c-15.722,33.062-30.554,97.345-12.95,216.555c1.713,2.186,3.183,11.55,15.814,69.005
				c5.096,23.17,29.583,32.186,55.604,55.145c28.502,25.146,50.869,45.225,72.325,45.225c0,0,2.103-3.918,3.933-3.912
				c1.83,0.007,3.932,3.912,3.932,3.912c25.117,0,45.646-18.28,74.738-43.672c24.43-21.322,47.215-29.363,53.19-56.695
				c13.271-60.668,13.971-66.904,16.136-68.866C872.258,367.109,864.717,306.402,852.838,269.618z"/>
			<path fill="#FFFFFF" stroke="#000000" stroke-width="5" stroke-linecap="round" stroke-linejoin="round" d="M536.229,339.855
				c-1.187-0.354-7.694-1.276-15.9-8.096c-43.328-35.998,3.109,43.786,8.688,61.904c8.263,26.825,18.716,52.688,25.841,63.816
				c-1.103-12.314-2.591-27.022-4.604-44.091C546.778,383.952,541.083,358.263,536.229,339.855z"/>
			<path fill="#2B2B2B" stroke="#000000" stroke-width="5" stroke-linecap="round" stroke-linejoin="round" d="M883.406,339.911
				c-0.021,0.006-0.046,0.013-0.046,0.013s55.162-220.223-165.664-229.429l0.004-0.3c-2.636-0.007-5.225,0.023-7.787,0.071
				c-2.564-0.048-5.151-0.079-7.787-0.071l0.004,0.3c-220.828,9.206-165.663,229.428-165.663,229.428s-0.088-0.021-0.234-0.066
				c4.853,18.406,10.548,44.097,14.021,73.536c2.017,17.066,3.503,31.774,4.604,44.091c0.489,0.767,0.979,1.501,1.47,2.17
				c3.744,5.13,4.87,3.821,5.907,5.145c-17.604-119.21-2.771-183.493,12.951-216.555c-0.57-2.577-1.223-5.174-1.952-7.791
				c0.729,2.617,1.382,5.214,1.952,7.791c5.771-12.14,8.657-18.209,8.657-18.209s-2.887,6.069-8.657,18.209
				c3.008,13.587,3.545,26.533-0.956,37.94c-3.962,10.04-10.162,17.456-10.162,17.456s22.352-10.375,29.561-25.918
				c0.977-2.102,1.866-4.824,2.68-7.889c-0.072-0.952-0.108-1.428-0.108-1.428s0.036,0.476,0.108,1.428
				c4.052-15.264,6.098-39.191,6.098-39.191s-2.046,23.928-6.098,39.191c0.946,12.231,0.133,20.656-4.563,31.727
				c-4.213,9.938-12.161,20.457-12.161,20.457s21.585-9,29.561-25.919c4.229-8.975,6.9-29.236,8.076-40.019
				c-0.714-2.061-1.508-4.162-2.385-6.313c0.877,2.151,1.671,4.253,2.385,6.313c0.233-2.137,0.353-3.205,0.353-3.205
				s-0.117,1.068-0.353,3.205c5.055,14.585,6.039,27.134,3.146,40.896c-2.646,12.565-7.23,23.033-7.23,23.033
				s26.535-19.991,33.045-41.542c3.198-10.588,3.763-25.672,3.622-37.087c-0.915-1.306-1.373-1.959-1.373-1.959
				s0.458,0.653,1.373,1.959c-0.11-9.294-0.688-16.158-0.688-16.158s0.576,6.864,0.688,16.158
				c10.439,14.892,13.137,28.441,12.308,41.956c-0.977,15.885-8.012,35.771-8.012,35.771s30.822-24.588,34.712-58.701
				c1.318-11.576-0.741-26.652-3.308-39.409c-1.123-0.275-1.685-0.413-1.685-0.413s0.562,0.138,1.685,0.413
				c-2.909-14.471-6.465-25.956-6.465-25.956s3.556,11.485,6.465,25.956c23.749,5.823,36.076,18.233,37.746,36.334
				c2.011,21.792-26.828,31.188-26.828,31.188s42.5-3.5,46.529-38.119c1.629-13.999-6.307-29.752-13.487-40.779
				c-6.611-4.112-14.252-7.884-22.952-11.297c8.7,3.413,16.341,7.185,22.952,11.297c-2.745-4.215-4.118-6.323-4.118-6.323
				s1.373,2.108,4.118,6.323c24.114,14.997,34.466,34.547,31.944,57.953c-3.534,32.807-48.959,38.083-48.959,38.083
				s63.853,7.516,80.144-42.441c1.468-4.501,2.258-9.273,2.521-14.176c-2.074-3.801-3.111-5.7-3.111-5.7s1.037,1.899,3.111,5.7
				c1.822-33.924-21.648-74.104-21.648-74.104s23.472,40.18,21.648,74.104c5.854,10.727,8.24,21.209,6.027,34.234
				c-2.991,17.625-27.433,46.934-27.433,46.934s51.08-34.034,53.267-72.328c0.157-2.754,0.146-5.695-0.005-8.757
				c-0.596-0.589-0.895-0.883-0.895-0.883s0.299,0.294,0.895,0.883c-1.345-27.776-13.94-65.585-13.94-65.585
				s12.598,37.809,13.94,65.585c9.169,9.046,14.283,16.415,13.854,27.873c-0.39,10.256-12.111,28.76-12.111,28.76
				s19.76-17.278,24.128-36.131c-1.989-6.163-2.982-9.244-2.982-9.244s0.993,3.081,2.982,9.244c0.692-2.985,1.012-6.009,0.791-9.011
				c-1.17-15.905-13.486-41.271-13.486-41.271s12.316,25.366,13.486,41.271c0.221,3.002-0.099,6.025-0.791,9.011
				c11.879,36.784,19.42,97.491,5.071,195.314c1.028-0.932,2.39-0.897,5.589-5.28c0.555-0.762,1.11-1.597,1.669-2.479
				c1.113-12.65,2.646-27.923,4.753-45.781C873.269,383.032,878.676,358.154,883.406,339.911z"/>
			<path fill="#FFFFFF" stroke="#000000" stroke-width="5" stroke-linecap="round" stroke-linejoin="round" d="M899.496,331.761
				c-8.45,7.831-15.616,8.021-16.09,8.149c-4.73,18.243-10.14,43.121-13.486,71.481c-2.108,17.856-3.64,33.13-4.753,45.779
				c9.429-14.957,19.193-46.808,25.641-63.508C897.636,375.979,941.668,292.68,899.496,331.761z"/>
		</g>
		<path fill="#E6E6E6" d="M575.834,369.732c8.483,27.279,26.843,70.767,48.166,75.753c21.325,4.985,62.472-26.813,69.195-37.857
			c17.8-29.24-25.314-62.104-71.46-70.868C565.15,326.013,571.474,355.712,575.834,369.732z"/>
		<path fill="none" stroke="#000000" stroke-width="5" stroke-linecap="round" stroke-linejoin="round" d="M578.906,363.869
			c0,0,24.462-24.832,46.594-19.384c32.5,8,68,53.5,68,53.5"/>
		<path fill="#1A1A1A" stroke="#000000" stroke-width="5" stroke-linecap="round" stroke-linejoin="round" d="M593.24,296.466
			c23.76-0.006,95.554,59.313,98.063,66.837c1.729,5.188-65.473-54.578-98.063-53.088c-9.398,0.432-17.563,18.355-20.07,17.618
			C570.662,327.099,580.679,296.469,593.24,296.466z"/>
		<path fill="#E6E6E6" d="M612.393,485.904c6.922,8.172,12.561,31.544,14.309,42.535c1.746,10.992,2.494,36.729-9.154,39.477
			c-11.646,2.748-29.544-25.402-32.613-38.881c-3.467-15.225-12.646-59.994-7.404-64.116
			C582.767,460.796,605.471,477.734,612.393,485.904z"/>
		<path fill="#E6E6E6" d="M809.528,487.404c-6.92,8.172-12.561,31.544-14.309,42.535c-1.745,10.992-2.492,36.729,9.154,39.477
			s29.544-25.402,32.613-38.881c3.467-15.225,12.646-59.994,7.404-64.116C839.154,462.296,816.45,479.234,809.528,487.404z"/>
		<path fill="#1A1A1A" stroke="#000000" stroke-width="5" stroke-linecap="round" stroke-linejoin="round" d="M625.736,345.745
			c-18.565-4.57-38.765,12.161-44.792,17.674c6.195,12.918,28.037,55.742,46.986,59.733c18.098,3.813,50.035-19.916,61.529-29.08
			C679.079,381.919,651.47,352.08,625.736,345.745z"/>
		<path fill="#E6E6E6" d="M841.248,369.732c-8.483,27.279-26.843,70.767-48.166,75.753c-21.325,4.985-62.472-26.813-69.195-37.857
			c-17.8-29.24,25.314-62.104,71.46-70.868C851.932,326.013,845.608,355.712,841.248,369.732z"/>
		<path fill="none" stroke="#000000" stroke-width="5" stroke-linecap="round" stroke-linejoin="round" d="M838.176,363.869
			c0,0-24.462-24.832-46.594-19.384c-32.5,8-68,53.5-68,53.5"/>
		<path fill="#1A1A1A" stroke="#000000" stroke-width="5" stroke-linecap="round" stroke-linejoin="round" d="M823.842,296.466
			c-23.76-0.006-95.554,59.313-98.063,66.837c-1.729,5.188,65.473-54.578,98.063-53.088c9.398,0.432,17.563,18.355,20.07,17.618
			C846.42,327.099,836.403,296.469,823.842,296.466z"/>
		<path fill="#1A1A1A" stroke="#000000" stroke-width="5" stroke-linecap="round" stroke-linejoin="round" d="M791.346,345.745
			c18.565-4.57,38.765,12.161,44.792,17.674c-6.196,12.918-28.037,55.742-46.986,59.733c-18.098,3.813-50.035-19.916-61.529-29.08
			C738.003,381.919,765.612,352.08,791.346,345.745z"/>
		<g>
			<path fill="#C1272D" d="M704.054,506.192c-43.729,0-68.646-19.604-79.706-33.849c1.03,32.568,10.199,155.77,86.969,152.723
				c82.873-3.29,78.795-139.027,77.59-158.91C777.159,482.104,749.511,506.192,704.054,506.192z"/>
			<path fill="#FFFFFF" stroke="#000000" stroke-width="5" stroke-linecap="round" stroke-linejoin="round" d="M704.054,514.192
				c-43.729,0-68.646-23.604-79.706-37.85c1.03,32.568,10.199,141.77,86.969,138.723c82.873-3.29,78.795-126.027,77.59-145.91
				C777.159,485.104,749.511,514.192,704.054,514.192z"/>
			<path fill="none" stroke="#000000" stroke-width="5" stroke-linecap="round" stroke-linejoin="round" d="M617.876,465.282
				c0,0,24.058,48.411,86.678,48.411s91.456-55.21,91.456-55.21"/>
		</g>
		<path fill="none" stroke="#000000" stroke-width="5" stroke-linecap="round" stroke-linejoin="round" d="M709.328,394.347
			c0,0-4.639,49.915-15.773,58.662c-16.554,13.004-32.521,44.172-24.289,47.338c8.235,3.166,14.277-9.834,27.595-3.334
			c12.363,6.036,15.207,5.668,18.553,5.334"/>
	</g>
	<g>
		<path fill="#E6E6E6" stroke="#000000" stroke-width="5" stroke-linecap="round" stroke-linejoin="round" d="M687.334,664.37
			l22.754-8.86l-0.254-0.099l0.254,0.099l0.254-0.099v-0.917l-46.661-18.878c-3.671,1.74-9.732,5.321-16.439,12.174l15.595,26.121
			L687.334,664.37"/>
		<path fill="#E6E6E6" stroke="#000000" stroke-width="5" stroke-linecap="round" stroke-linejoin="round" d="M687.334,664.37
			l-24.5,9.541l-15.595-26.121c-15.828,16.172-35.238,50.569-35.238,122.038c0,5.514,0,10.843,0,16h75.333V664.37L687.334,664.37z"
			/>
		<path fill="#2B2B2B" stroke="#000000" stroke-width="5" stroke-linecap="round" stroke-linejoin="round" d="M687.334,785.828
			h-75.333c0,5.533,0,10.865,0,16h98.341v-16H687.334"/>
		<path fill="#2B2B2B" stroke="#000000" stroke-width="5" stroke-linecap="round" stroke-linejoin="round" d="M733.334,785.828
			h-22.992v16h98.325c0-5.134,0-10.465,0-16H733.334"/>
		<polygon fill="#E6E6E6" stroke="#000000" stroke-width="5" stroke-linecap="round" stroke-linejoin="round" points="
			733.334,785.828 733.334,664.563 710.342,655.608 710.342,785.828 		"/>
		<polygon fill="#E6E6E6" stroke="#000000" stroke-width="5" stroke-linecap="round" stroke-linejoin="round" points="
			687.334,664.37 687.334,785.828 710.342,785.828 710.342,655.608 710.088,655.51 		"/>
		<path fill="#E6E6E6" stroke="#000000" stroke-width="5" stroke-linecap="round" stroke-linejoin="round" d="M733.334,664.563
			v121.266h75.333c0-4.952,0-10.051,0-15.334c0-79.709-18.917-112.972-33.314-126.751l-18.011,30.168L733.334,664.563z"/>
		<path fill="#2B2B2B" stroke="#000000" stroke-width="5" stroke-linecap="round" stroke-linejoin="round" d="M710.342,801.828
			v114.666h98.325c0-15.494,0-48.948,0-114.666H710.342z"/>
		<path fill="#808080" stroke="#000000" stroke-width="5" stroke-linecap="round" stroke-linejoin="round" d="M775.353,643.743
			c14.397,13.779,33.314,47.042,33.314,126.751c0,5.283,0,10.382,0,15.334"/>
		<path fill="#2B2B2B" stroke="#000000" stroke-width="5" stroke-linecap="round" stroke-linejoin="round" d="M612.001,801.828
			c0,67.288,0,100.852,0,114.666h98.341V801.828H612.001z"/>
		<path fill="#E6E6E6" stroke="#000000" stroke-width="5" stroke-linecap="round" stroke-linejoin="round" d="M733.334,664.563
			l24.008,9.349l18.011-30.168c-5.97-5.714-11.161-8.083-13.904-9.016l-51.104,19.767v0.917v0.197L733.334,664.563"/>
		<path fill="#808080" stroke="#000000" stroke-width="5" stroke-linecap="round" stroke-linejoin="round" d="M612.001,785.828
			c0-5.157,0-10.486,0-16c0-71.469,19.41-105.866,35.238-122.038"/>
	</g>
	<g>
		<path fill="#1A1A1A" stroke="#000000" stroke-width="5" stroke-linecap="round" stroke-linejoin="round" d="M667.319,634.503
			c0,0-16-22-18-38s-6-35.844-6-35.844s-57-2.156-80-43.156c-0.409-0.729-0.765-1.45-1.085-2.167
			c4.989,34.967,18.906,48.241,31.96,74.063c9.912,19.604,12.657,35.861,27.792,44.438c0,0-73.333-3.999-73.333,70.333
			c0,74.334,0,190.666,0,190.666s-10.668,12-29.334,14.668c-18.666,2.666-28.666,7.332-28.666,7.332h121.333
			c0-15.852,0-57.699,0-146.666C611.986,649.504,667.319,634.503,667.319,634.503z"/>
		<path fill="#1A1A1A" stroke="#000000" stroke-width="5" stroke-linecap="round" stroke-linejoin="round" d="M906.66,909.503
			c-18.667-2.668-29.333-14.668-29.333-14.668s0-116.332,0-190.666c0-74.332-73.334-70.333-73.334-70.333
			c15.133-8.575,17.881-24.832,27.791-44.438c12.804-25.326,26.438-38.582,31.665-72.078c-0.034,0.062-0.062,0.122-0.095,0.184
			c-23,41-80,44.156-80,44.156s-4,18.844-6,34.844s-18,38-18,38s49.298,7.666,49.298,136.332c0,86.775,0,128.213,0,146h126.675
			C935.327,916.835,925.327,912.169,906.66,909.503z"/>
	</g>
	<g>
		<path fill="#1A1A1A" stroke="#000000" stroke-width="5" stroke-linecap="round" stroke-linejoin="round" d="M561.524,515.194
			c-0.565-3.957-1.02-8.188-1.341-12.75C559.148,506.455,559.502,510.706,561.524,515.194z"/>
		<path fill="#1A1A1A" stroke="#000000" stroke-width="5" stroke-linecap="round" stroke-linejoin="round" d="M618.957,632.249
			c14.743,1.773,30.228,2.795,47.271,1.576c-2.435-3.447-15.802-22.93-17.616-37.463c-2-16-6-35.844-6-35.844s-57-2.156-80-43.156
			c-0.409-0.729-0.765-1.451-1.085-2.168c4.989,34.967,18.906,48.242,31.961,74.063
			C602.865,607.813,605.836,623.366,618.957,632.249z"/>
		<path fill="#1A1A1A" stroke="#000000" stroke-width="5" stroke-linecap="round" stroke-linejoin="round" d="M864.486,500.741
			c-0.375,6.001-0.969,11.444-1.747,16.438C865.979,511.305,866.363,505.824,864.486,500.741z"/>
		<path fill="#1A1A1A" stroke="#000000" stroke-width="5" stroke-linecap="round" stroke-linejoin="round" d="M618.957,632.249
			L618.957,632.249c-30.276-3.643-57.454-10.406-88.69-7.219c-49,4.998-107.999,60.33-181.999,75.664
			c-74,15.334-110-31.666-110-31.666s54.418,213.139,373.01,244.102c0-18.145,0-60.139,0-143.102
			c0-120.666,55.333-135.666,55.333-135.666s-0.139-0.189-0.384-0.537C649.185,635.044,633.7,634.022,618.957,632.249z"/>
		<path fill="#1A1A1A" stroke="#000000" stroke-width="5" stroke-linecap="round" stroke-linejoin="round" d="M805.697,632.185
			c13.042-8.895,16.02-24.416,25.377-42.93c12.804-25.325,26.438-38.582,31.665-72.078c-0.033,0.063-0.062,0.121-0.094,0.186
			c-23,41-80,44.156-80,44.156s-4,18.844-6,34.844c-1.834,14.666-15.424,34.361-17.678,37.545
			C775.796,635.022,791.104,633.96,805.697,632.185z"/>
		<path fill="#1A1A1A" stroke="#000000" stroke-width="5" stroke-linecap="round" stroke-linejoin="round" d="M1185.86,669.028
			c0,0-36,47-110,31.666s-133-70.666-182-75.664c-31.057-3.168-58.1,3.498-88.163,7.154l0,0
			c-14.596,1.773-29.901,2.838-46.729,1.723c-0.204,0.289-0.324,0.455-0.324,0.455s49.299,7.666,49.299,136.332
			c0,82.059,0,123.574,0,142.887C1130.874,884.339,1185.86,669.028,1185.86,669.028z"/>
	</g>
</g>
<ellipse fill="#FFFFFF" stroke="#000000" stroke-width="5" stroke-linecap="round" stroke-linejoin="round" cx="630.521" cy="385.485" rx="22.479" ry="32"/>
<ellipse fill="#FFFFFF" stroke="#000000" stroke-width="5" stroke-linecap="round" stroke-linejoin="round" cx="785.022" cy="386.485" rx="22.479" ry="32"/>
<path fill="none" stroke="#000000" stroke-width="4" stroke-linecap="round" stroke-linejoin="round" d="M624.533,477.082
	c0,0,10.967,54.403,19.467,74.403s16.5,33,16.5,33s-5.088-14.025-6-25.5c-1.166-14.666,1-25.844,1-25.844l11.819,38.678
	l11.472-26.184l10.71,18.85l13.999-16.5l9.5,12l10.582-11.5l9.752,12l9.514-14.85l5.986,21.85l13.709-42.5c0,0,2.958,16,0,34
	c-1.753,10.668-6.209,21.5-6.209,21.5s13.371-18.5,19.019-42.5c5.648-24,13.147-68.83,13.147-68.83"/>
</svg>
