<?xml version="1.0" encoding="utf-8"?>
<!-- Generator: Adobe Illustrator 14.0.0, SVG Export Plug-In . SVG Version: 6.00 Build 43363)  -->
<!DOCTYPE svg PUBLIC "-//W3C//DTD SVG 1.1//EN" "http://www.w3.org/Graphics/SVG/1.1/DTD/svg11.dtd">
<svg version="1.1" id="圖層_1" xmlns="http://www.w3.org/2000/svg" xmlns:xlink="http://www.w3.org/1999/xlink" x="0px" y="0px"
	 width="1418px" height="1023.99px" viewBox="0 0 1418 1023.99" enable-background="new 0 0 1418 1023.99" xml:space="preserve">
<g>
	<path fill="#6B0303" stroke="#000000" stroke-width="5" stroke-linecap="round" stroke-linejoin="round" d="M1219.156,319.689
		c-44.48,11.519-145.167,11.99-195.731,28.583c-31.775,10.427,103.463,17.995,165.077,46.179
		c73.031,33.408,140.585,102.226,140.585,102.226s-116.972-99.399-264.216-108.207c-60.899-3.643-125.05,7.092-126.964,18.597
		c-3.319,19.961,85.332,17.183,163.324,85.156c78.013,67.989,112.04,169.779,112.04,169.779s-64.75-128.613-176.001-181.088
		c-101.882-48.056-133.921-49.758-139.037-37.257c-5.116,12.501,48.897,18.774,79.083,90.287
		c25.984,61.563,14.819,154.515,14.819,154.515s-12.496-86.95-26.312-124.728c-18.62-50.92-46.438-69.535-72.518-76.237
		c-25.757-6.621-10.956,51.653-48.706,108.448c-11.602,17.456-47.437,41.226-68.404,54.208l25.352,33.409
		c13.292-1.49,59.059-11.403,107.231-5.021c37.062,4.907,86.005,35.16,86.005,35.16s42.545-22.405,119.993-27.548
		c77.452-5.144,132.129,30.665,132.129,30.665s-28.547-74.07-2.992-119.382c25.557-45.313,118.344-88.45,118.344-88.45
		s-69.441-70.127-68.728-128.583c0.524-43.068,62.908-105.187,95.72-134.911C1351.027,266.271,1275.427,305.117,1219.156,319.689z"
		/>
	<path fill="#1A1A1A" stroke="#000000" stroke-width="5" stroke-linecap="round" stroke-linejoin="round" d="M844.601,595.941
		c37.75-56.795,22.949-115.069,48.706-108.448c26.079,6.702,53.897,25.317,72.518,76.237
		c13.815,37.777,26.312,124.728,26.312,124.728s11.165-92.952-14.819-154.515c-30.186-71.513-84.199-77.785-79.083-90.287
		c5.116-12.501,37.155-10.798,139.037,37.257c111.251,52.475,176.001,181.088,176.001,181.088s-34.027-101.79-112.04-169.779
		c-77.992-67.973-166.644-65.195-163.324-85.156c1.914-11.505,66.064-22.24,126.964-18.597
		c147.244,8.808,264.216,108.207,264.216,108.207s-67.554-68.818-140.585-102.226c-61.614-28.185-196.853-35.752-165.077-46.179
		c50.564-16.593,151.251-17.064,195.731-28.583c56.271-14.572,131.871-53.418,170.094-74.2
		c11.727-10.621,19.678-17.111,19.678-17.111s-122.734,60.687-197.266,75.328c-74.527,14.642-199.473,7.373-199.473,7.373
		s-16.789,46.773-65.01,65.786c-48.221,19.013-78.179,9.524-78.179,9.524s-8,129.335-29.898,179.76
		c-21.9,50.429-74.51,68.708-74.51,68.708l11.604,15.292C797.164,637.167,832.999,613.397,844.601,595.941z"/>
</g>
<g>
	<path fill="#6B0303" stroke="#000000" stroke-width="5" stroke-linecap="round" stroke-linejoin="round" d="M182.871,327.338
		c40.998,12.254,134.685,16.164,181.17,33.35c29.211,10.799-96.908,13.178-155.221,37.284
		c-69.116,28.573-134.359,90.287-134.359,90.287s112.286-88.471,249.623-91.59c56.8-1.29,116.13,10.913,117.516,21.686
		c2.4,18.69-80.006,13.049-154.933,73.618c-74.947,60.583-110.126,154.14-110.126,154.14s64.696-117.461,170.04-162.46
		c96.473-41.209,126.347-41.688,130.678-29.877c4.332,11.81-46.153,15.786-76.71,81.296
		c-26.306,56.396-19.121,143.287-19.121,143.287s14.628-80.487,28.789-115.171c19.085-46.744,45.614-63.109,70.115-68.448
		c24.2-5.271,8.414,48.449,41.588,102.609c10.196,16.643,42.727,40,61.791,52.805l-24.744,30.218
		c-12.32-1.845-54.57-12.649-99.622-8.37c-34.659,3.289-81.251,29.756-81.251,29.756s-38.823-22.318-110.722-29.775
		c-71.902-7.457-124.021,23.982-124.021,23.982s29.12-67.95,6.901-111c-22.223-43.051-107.087-86.395-107.087-86.395
		s67.043-62.869,68.395-117.295c0.998-40.1-54.917-100.061-84.428-128.854C61.987,273.077,131.005,311.835,182.871,327.338z"/>
	<path fill="#1A1A1A" stroke="#000000" stroke-width="5" stroke-linecap="round" stroke-linejoin="round" d="M521.92,597.348
		c-33.174-54.16-17.388-107.881-41.588-102.609c-24.501,5.339-51.03,21.704-70.115,68.448
		c-14.161,34.684-28.789,115.171-28.789,115.171s-7.185-86.891,19.121-143.287c30.557-65.51,81.042-69.486,76.71-81.296
		c-4.331-11.811-34.205-11.332-130.678,29.877c-105.344,44.999-170.04,162.46-170.04,162.46s35.179-93.557,110.126-154.14
		C361.594,431.402,444,437.044,441.6,418.354c-1.386-10.772-60.716-22.976-117.516-21.686
		c-137.337,3.119-249.623,91.59-249.623,91.59s65.243-61.714,134.359-90.287c58.313-24.105,184.432-26.484,155.221-37.284
		c-46.485-17.186-140.172-21.096-181.17-33.35c-51.866-15.502-120.884-54.261-155.738-74.919
		C16.587,242.13,9.409,235.815,9.409,235.815s112.13,60.709,180.986,76.906C259.25,328.917,375.78,326.46,375.78,326.46
		s14.011,44.109,58.231,63.466s72.429,11.561,72.429,11.561s2.983,120.64,21.625,168.322c18.642,47.688,66.974,66.514,66.974,66.514
		l-11.328,13.83C564.646,637.348,532.116,613.99,521.92,597.348z"/>
</g>
<g>
	<g id="head_1_">
		<g>
			<path fill="#FFFFFF" stroke="#000000" stroke-width="5" stroke-linecap="round" stroke-linejoin="round" d="M826.838,269.623
				c-4.368,18.853-24.128,36.131-24.128,36.131s11.724-18.504,12.111-28.76c0.432-11.458-4.683-18.827-13.852-27.873
				c0.148,3.062,0.162,6.003,0.005,8.757c-2.187,38.294-53.267,72.328-53.267,72.328s24.439-29.308,27.433-46.934
				c2.212-13.025-0.175-23.508-6.029-34.234c-0.264,4.902-1.054,9.675-2.521,14.176c-16.291,49.957-80.144,42.441-80.144,42.441
				s45.425-5.275,48.959-38.082c2.521-23.406-7.83-42.956-31.944-57.953c7.183,11.027,15.116,26.78,13.487,40.779
				c-4.029,34.619-46.529,38.119-46.529,38.119s28.839-9.396,26.828-31.188c-1.67-18.101-13.997-30.511-37.746-36.334
				c2.564,12.757,4.626,27.833,3.307,39.409c-3.889,34.112-34.711,58.7-34.711,58.7s7.035-19.885,8.01-35.77
				c0.829-13.515-1.866-27.064-12.306-41.956c0.139,11.415-0.424,26.499-3.622,37.087c-6.51,21.551-33.045,41.542-33.045,41.542
				s4.587-10.468,7.23-23.033c2.896-13.763,1.909-26.312-3.144-40.896c-1.176,10.782-3.848,31.044-8.077,40.019
				c-7.975,16.92-29.56,25.92-29.56,25.92s7.948-10.52,12.161-20.457c4.693-11.07,5.509-19.495,4.563-31.727
				c-0.813,3.064-1.705,5.787-2.68,7.889c-7.209,15.545-29.561,25.92-29.561,25.92s6.2-7.416,10.162-17.456
				c4.501-11.407,3.964-24.354,0.956-37.94c-15.721,33.062-30.553,97.345-12.951,216.555c1.713,2.184,3.183,11.549,15.816,69.005
				c5.095,23.17,29.583,32.184,55.604,55.143c28.502,25.146,50.869,45.225,72.326,45.225c0,0,2.102-3.918,3.932-3.912
				s3.932,3.912,3.932,3.912c25.117,0,45.644-18.281,74.738-43.672c24.43-21.322,47.215-29.363,53.191-56.695
				c13.27-60.668,13.97-66.906,16.135-68.868C846.258,367.114,838.717,306.407,826.838,269.623z"/>
			<path fill="#FFFFFF" stroke="#000000" stroke-width="5" stroke-linecap="round" stroke-linejoin="round" d="M510.23,339.86
				c-1.186-0.353-7.695-1.276-15.901-8.094c-43.328-35.998,3.11,43.786,8.689,61.904c8.261,26.825,18.714,52.688,25.839,63.816
				c-1.101-12.314-2.589-27.022-4.604-44.09C520.778,383.957,515.083,358.268,510.23,339.86z"/>
			<path fill="#2B2B2B" stroke="#000000" stroke-width="5" stroke-linecap="round" stroke-linejoin="round" d="M857.406,339.916
				c-0.02,0.006-0.046,0.013-0.046,0.013S912.523,119.706,691.696,110.5l0.004-0.3c-2.636-0.007-5.223,0.023-7.787,0.071
				c-2.564-0.048-5.151-0.079-7.787-0.071l0.004,0.3c-220.828,9.206-165.663,229.428-165.663,229.428s-0.088-0.023-0.236-0.068
				c4.853,18.408,10.548,44.097,14.023,73.537c2.015,17.067,3.503,31.775,4.604,44.09c0.491,0.767,0.981,1.501,1.47,2.17
				c3.744,5.13,4.87,3.822,5.907,5.145c-17.602-119.21-2.77-183.493,12.951-216.555c-0.57-2.577-1.221-5.174-1.952-7.791
				c0.731,2.617,1.382,5.214,1.952,7.791c5.772-12.14,8.659-18.209,8.659-18.209s-2.887,6.069-8.659,18.209
				c3.008,13.587,3.545,26.533-0.956,37.94c-3.962,10.04-10.162,17.456-10.162,17.456s22.352-10.375,29.561-25.92
				c0.975-2.102,1.866-4.824,2.68-7.889c-0.074-0.952-0.11-1.428-0.11-1.428s0.036,0.476,0.11,1.428
				c4.05-15.264,6.096-39.191,6.096-39.191s-2.046,23.928-6.096,39.191c0.946,12.231,0.131,20.656-4.563,31.727
				c-4.213,9.938-12.161,20.457-12.161,20.457s21.585-9,29.56-25.92c4.229-8.975,6.901-29.236,8.077-40.019
				c-0.714-2.061-1.508-4.162-2.385-6.313c0.877,2.151,1.671,4.253,2.385,6.313c0.233-2.137,0.351-3.205,0.351-3.205
				s-0.117,1.068-0.351,3.205c5.053,14.585,6.039,27.134,3.144,40.896c-2.644,12.565-7.23,23.033-7.23,23.033
				s26.535-19.991,33.045-41.542c3.198-10.588,3.761-25.672,3.622-37.087c-0.915-1.306-1.373-1.959-1.373-1.959
				s0.458,0.653,1.373,1.959c-0.112-9.294-0.688-16.158-0.688-16.158s0.576,6.864,0.688,16.158
				c10.439,14.892,13.135,28.441,12.306,41.956c-0.975,15.885-8.01,35.77-8.01,35.77s30.822-24.588,34.711-58.7
				c1.319-11.576-0.742-26.652-3.307-39.409c-1.123-0.275-1.685-0.413-1.685-0.413s0.562,0.138,1.685,0.413
				c-2.909-14.471-6.465-25.956-6.465-25.956s3.556,11.485,6.465,25.956c23.749,5.823,36.076,18.233,37.746,36.334
				c2.011,21.792-26.828,31.188-26.828,31.188s42.5-3.5,46.529-38.119c1.629-13.999-6.305-29.752-13.487-40.779
				c-6.611-4.112-14.252-7.884-22.952-11.297c8.7,3.413,16.341,7.185,22.952,11.297c-2.745-4.215-4.118-6.323-4.118-6.323
				s1.373,2.108,4.118,6.323c24.114,14.997,34.466,34.547,31.944,57.953c-3.534,32.807-48.959,38.082-48.959,38.082
				s63.853,7.516,80.144-42.441c1.468-4.501,2.258-9.273,2.521-14.176c-2.074-3.801-3.111-5.7-3.111-5.7s1.037,1.899,3.111,5.7
				c1.823-33.924-21.648-74.104-21.648-74.104s23.472,40.18,21.648,74.104c5.854,10.727,8.241,21.209,6.029,34.234
				c-2.993,17.626-27.433,46.934-27.433,46.934s51.08-34.034,53.267-72.328c0.157-2.754,0.144-5.695-0.005-8.757
				c-0.596-0.589-0.895-0.883-0.895-0.883s0.299,0.294,0.895,0.883c-1.345-27.776-13.942-65.585-13.942-65.585
				s12.598,37.809,13.942,65.585c9.169,9.046,14.283,16.415,13.852,27.873c-0.388,10.256-12.111,28.76-12.111,28.76
				s19.76-17.278,24.128-36.131c-1.989-6.163-2.984-9.244-2.984-9.244s0.995,3.081,2.984,9.244c0.692-2.985,1.012-6.009,0.791-9.011
				c-1.17-15.905-13.486-41.271-13.486-41.271s12.316,25.366,13.486,41.271c0.221,3.002-0.099,6.025-0.791,9.011
				c11.879,36.784,19.42,97.491,5.071,195.316c1.03-0.932,2.39-0.899,5.589-5.282c0.555-0.76,1.111-1.595,1.669-2.479
				c1.113-12.651,2.645-27.923,4.753-45.781C847.269,383.037,852.676,358.159,857.406,339.916z"/>
			<path fill="#FFFFFF" stroke="#000000" stroke-width="5" stroke-linecap="round" stroke-linejoin="round" d="M873.496,331.766
				c-8.45,7.831-15.616,8.02-16.09,8.149c-4.73,18.243-10.138,43.121-13.486,71.481c-2.108,17.858-3.64,33.13-4.753,45.781
				c9.429-14.957,19.193-46.808,25.641-63.508C871.636,375.984,915.668,292.685,873.496,331.766z"/>
		</g>
		<path fill="#E6E6E6" d="M549.834,369.737c8.483,27.281,26.843,70.767,48.166,75.753c21.325,4.987,62.472-26.813,69.195-37.857
			c17.8-29.24-25.314-62.104-71.46-70.868C539.15,326.018,545.474,355.717,549.834,369.737z"/>
		<path fill="none" stroke="#000000" stroke-width="5" stroke-linecap="round" stroke-linejoin="round" d="M552.906,363.874
			c0,0,24.462-24.832,46.594-19.384c32.5,8,68,53.5,68,53.5"/>
		<path fill="#1A1A1A" stroke="#000000" stroke-width="5" stroke-linecap="round" stroke-linejoin="round" d="M567.24,296.471
			c23.76-0.006,95.554,59.313,98.063,66.839c1.729,5.188-65.473-54.58-98.063-53.088c-9.398,0.43-17.561,18.355-20.07,17.618
			C544.662,327.104,554.679,296.474,567.24,296.471z"/>
		<path fill="#E6E6E6" d="M586.393,485.909c6.92,8.172,12.559,31.544,14.307,42.535c1.746,10.994,2.494,36.729-9.154,39.477
			c-11.647,2.748-29.544-25.402-32.613-38.881c-3.467-15.225-12.648-59.994-7.406-64.116
			C556.767,460.801,579.471,477.739,586.393,485.909z"/>
		<path fill="#E6E6E6" d="M783.528,487.409c-6.92,8.172-12.559,31.544-14.307,42.535c-1.746,10.994-2.494,36.729,9.154,39.477
			c11.647,2.748,29.544-25.402,32.613-38.881c3.467-15.225,12.648-59.994,7.406-64.116
			C813.154,462.301,790.45,479.239,783.528,487.409z"/>
		<path fill="#1A1A1A" stroke="#000000" stroke-width="5" stroke-linecap="round" stroke-linejoin="round" d="M599.736,345.75
			c-18.565-4.57-38.763,12.161-44.792,17.674c6.197,12.918,28.037,55.742,46.988,59.733c18.096,3.813,50.035-19.916,61.529-29.08
			C653.079,381.924,625.47,352.085,599.736,345.75z"/>
		<path fill="#E6E6E6" d="M815.248,369.737c-8.483,27.281-26.843,70.767-48.166,75.753c-21.325,4.987-62.472-26.813-69.195-37.857
			c-17.8-29.24,25.314-62.104,71.46-70.868C825.932,326.018,819.608,355.717,815.248,369.737z"/>
		<path fill="none" stroke="#000000" stroke-width="5" stroke-linecap="round" stroke-linejoin="round" d="M812.176,363.874
			c0,0-24.462-24.832-46.594-19.384c-32.5,8-68,53.5-68,53.5"/>
		<path fill="#1A1A1A" stroke="#000000" stroke-width="5" stroke-linecap="round" stroke-linejoin="round" d="M797.842,296.471
			c-23.76-0.006-95.554,59.313-98.063,66.839c-1.729,5.188,65.473-54.58,98.063-53.088c9.398,0.43,17.561,18.355,20.07,17.618
			C820.42,327.104,810.403,296.474,797.842,296.471z"/>
		<path fill="#1A1A1A" stroke="#000000" stroke-width="5" stroke-linecap="round" stroke-linejoin="round" d="M765.346,345.75
			c18.565-4.57,38.763,12.161,44.792,17.674c-6.197,12.918-28.037,55.742-46.988,59.733c-18.096,3.813-50.035-19.916-61.529-29.08
			C712.003,381.924,739.612,352.085,765.346,345.75z"/>
		<g>
			<path fill="#C1272D" d="M678.054,506.197c-43.729,0-68.647-19.604-79.706-33.847c1.03,32.568,10.199,155.768,86.967,152.721
				c82.873-3.29,78.795-139.027,77.59-158.91C751.159,482.108,723.511,506.197,678.054,506.197z"/>
			<path fill="#FFFFFF" stroke="#000000" stroke-width="5" stroke-linecap="round" stroke-linejoin="round" d="M678.054,514.197
				c-43.729,0-68.647-23.604-79.706-37.848c1.03,32.568,10.199,141.768,86.967,138.721c82.873-3.29,78.795-126.027,77.59-145.91
				C751.159,485.108,723.511,514.197,678.054,514.197z"/>
			<path fill="none" stroke="#000000" stroke-width="5" stroke-linecap="round" stroke-linejoin="round" d="M591.876,465.287
				c0,0,24.058,48.411,86.678,48.411s91.456-55.21,91.456-55.21"/>
		</g>
		<path fill="none" stroke="#000000" stroke-width="5" stroke-linecap="round" stroke-linejoin="round" d="M683.328,394.352
			c0,0-4.639,49.915-15.773,58.662c-16.554,13.004-32.523,44.172-24.289,47.338c8.235,3.166,14.277-9.834,27.593-3.334
			c12.365,6.036,15.207,5.668,18.553,5.334"/>
	</g>
	<g>
		<path fill="#E6E6E6" stroke="#000000" stroke-width="5" stroke-linecap="round" stroke-linejoin="round" d="M661.334,664.375
			l22.754-8.86l-0.254-0.099l0.254,0.099l0.254-0.099v-0.917l-46.661-18.878c-3.671,1.74-9.734,5.321-16.441,12.174l15.595,26.121
			L661.334,664.375"/>
		<path fill="#E6E6E6" stroke="#000000" stroke-width="5" stroke-linecap="round" stroke-linejoin="round" d="M661.334,664.375
			l-24.5,9.541l-15.595-26.121c-15.828,16.172-35.238,50.569-35.238,122.038c0,5.514,0,10.843,0,16h75.333V664.375z"/>
		<path fill="#2B2B2B" stroke="#000000" stroke-width="5" stroke-linecap="round" stroke-linejoin="round" d="M661.334,785.833
			h-75.333c0,5.533,0,10.865,0,16h98.341v-16H661.334"/>
		<path fill="#2B2B2B" stroke="#000000" stroke-width="5" stroke-linecap="round" stroke-linejoin="round" d="M707.334,785.833
			h-22.992v16h98.325c0-5.134,0-10.465,0-16H707.334"/>
		<polygon fill="#E6E6E6" stroke="#000000" stroke-width="5" stroke-linecap="round" stroke-linejoin="round" points="
			707.334,785.833 707.334,664.567 684.342,655.613 684.342,785.833 		"/>
		<polygon fill="#E6E6E6" stroke="#000000" stroke-width="5" stroke-linecap="round" stroke-linejoin="round" points="
			661.334,664.375 661.334,785.833 684.342,785.833 684.342,655.613 684.088,655.515 		"/>
		<path fill="#E6E6E6" stroke="#000000" stroke-width="5" stroke-linecap="round" stroke-linejoin="round" d="M707.334,664.567
			v121.266h75.333c0-4.952,0-10.051,0-15.334c0-79.709-18.917-112.972-33.314-126.751l-18.011,30.168L707.334,664.567z"/>
		<path fill="#2B2B2B" stroke="#000000" stroke-width="5" stroke-linecap="round" stroke-linejoin="round" d="M684.342,801.833
			v114.666h98.325c0-15.494,0-48.948,0-114.666H684.342z"/>
		<path fill="#808080" stroke="#000000" stroke-width="5" stroke-linecap="round" stroke-linejoin="round" d="M749.353,643.748
			c14.397,13.779,33.314,47.042,33.314,126.751c0,5.283,0,10.382,0,15.334"/>
		<path fill="#2B2B2B" stroke="#000000" stroke-width="5" stroke-linecap="round" stroke-linejoin="round" d="M586.001,801.833
			c0,67.288,0,100.852,0,114.666h98.341V801.833H586.001z"/>
		<path fill="#E6E6E6" stroke="#000000" stroke-width="5" stroke-linecap="round" stroke-linejoin="round" d="M707.334,664.567
			l24.008,9.349l18.011-30.168c-5.97-5.714-11.162-8.083-13.906-9.016l-51.104,19.767v0.917v0.197L707.334,664.567"/>
		<path fill="#808080" stroke="#000000" stroke-width="5" stroke-linecap="round" stroke-linejoin="round" d="M586.001,785.833
			c0-5.157,0-10.486,0-16c0-71.469,19.41-105.866,35.238-122.038"/>
	</g>
	<g>
		<path fill="#1A1A1A" stroke="#000000" stroke-width="5" stroke-linecap="round" stroke-linejoin="round" d="M641.319,634.508
			c0,0-16-22-18-38s-6-35.844-6-35.844s-57-2.156-80-43.156c-0.409-0.729-0.763-1.45-1.085-2.167
			c4.991,34.967,18.908,48.241,31.96,74.062c9.912,19.606,12.659,35.863,27.792,44.438c0,0-73.333-3.999-73.333,70.333
			c0,74.334,0,190.666,0,190.666s-10.668,12-29.334,14.668c-18.666,2.666-28.666,7.332-28.666,7.332h121.333
			c0-15.852,0-57.699,0-146.666C585.986,649.509,641.319,634.508,641.319,634.508z"/>
		<path fill="#1A1A1A" stroke="#000000" stroke-width="5" stroke-linecap="round" stroke-linejoin="round" d="M880.66,909.508
			c-18.667-2.668-29.333-14.668-29.333-14.668s0-116.332,0-190.666c0-74.332-73.334-70.333-73.334-70.333
			c15.133-8.575,17.881-24.832,27.791-44.438c12.804-25.326,26.438-38.582,31.665-72.078c-0.034,0.062-0.06,0.122-0.094,0.184
			c-23,41-80,44.156-80,44.156s-4,18.844-6,34.844s-18,38-18,38s49.297,7.666,49.297,136.332c0,86.775,0,128.213,0,146h126.675
			C909.327,916.84,899.327,912.174,880.66,909.508z"/>
	</g>
	<g>
		<path fill="#1A1A1A" stroke="#000000" stroke-width="5" stroke-linecap="round" stroke-linejoin="round" d="M535.524,515.199
			c-0.565-3.957-1.018-8.188-1.339-12.75C533.148,506.46,533.502,510.711,535.524,515.199z"/>
		<path fill="#1A1A1A" stroke="#000000" stroke-width="5" stroke-linecap="round" stroke-linejoin="round" d="M592.957,632.254
			c14.743,1.773,30.228,2.795,47.271,1.576c-2.435-3.447-15.802-22.93-17.618-37.463c-2-16-6-35.844-6-35.844s-57-2.156-80-43.156
			c-0.409-0.729-0.763-1.451-1.085-2.168c4.991,34.967,18.908,48.242,31.961,74.063
			C576.865,607.818,579.836,623.371,592.957,632.254z"/>
		<path fill="#1A1A1A" stroke="#000000" stroke-width="5" stroke-linecap="round" stroke-linejoin="round" d="M838.486,500.746
			c-0.375,6.001-0.968,11.444-1.747,16.438C839.979,511.31,840.363,505.829,838.486,500.746z"/>
		<path fill="#1A1A1A" stroke="#000000" stroke-width="5" stroke-linecap="round" stroke-linejoin="round" d="M592.957,632.254
			L592.957,632.254c-30.276-3.643-57.454-10.406-88.69-7.219c-49,4.998-108,60.33-182,75.664s-110-31.666-110-31.666
			s54.419,213.139,373.01,244.102c0-18.145,0-60.139,0-143.102c0-120.666,55.333-135.666,55.333-135.666s-0.137-0.189-0.382-0.537
			C623.185,635.049,607.7,634.027,592.957,632.254z"/>
		<path fill="#1A1A1A" stroke="#000000" stroke-width="5" stroke-linecap="round" stroke-linejoin="round" d="M779.697,632.189
			c13.042-8.893,16.02-24.416,25.377-42.928c12.804-25.326,26.438-38.582,31.665-72.078c-0.033,0.061-0.06,0.121-0.094,0.184
			c-23,41-80,44.156-80,44.156s-4,18.844-6,34.844c-1.833,14.666-15.422,34.361-17.676,37.545
			C749.796,635.027,765.104,633.965,779.697,632.189z"/>
		<path fill="#1A1A1A" stroke="#000000" stroke-width="5" stroke-linecap="round" stroke-linejoin="round" d="M1159.86,669.033
			c0,0-36,47-110,31.666s-133-70.666-182-75.664c-31.055-3.168-58.098,3.498-88.163,7.154l0,0
			c-14.594,1.775-29.901,2.838-46.728,1.723c-0.204,0.289-0.324,0.455-0.324,0.455s49.297,7.666,49.297,136.332
			c0,82.059,0,123.574,0,142.887C1104.874,884.344,1159.86,669.033,1159.86,669.033z"/>
	</g>
</g>
<ellipse fill="#FFFFFF" stroke="#000000" stroke-width="5" stroke-linecap="round" stroke-linejoin="round" cx="604.52" cy="385.49" rx="22.48" ry="32"/>
<ellipse fill="#FFFFFF" stroke="#000000" stroke-width="5" stroke-linecap="round" stroke-linejoin="round" cx="759.023" cy="386.49" rx="22.48" ry="32"/>
<path fill="none" stroke="#000000" stroke-width="4" stroke-linecap="round" stroke-linejoin="round" d="M598.533,477.087
	c0,0,10.967,54.403,19.467,74.403s16.5,33,16.5,33s-5.088-14.025-6-25.5c-1.166-14.666,1-25.844,1-25.844l11.819,38.678
	l11.472-26.182l10.71,18.848l13.999-16.5l9.5,12l10.582-11.5l9.752,12l9.514-14.848l5.986,21.848l13.709-42.5c0,0,2.958,16,0,34
	c-1.753,10.668-6.209,21.5-6.209,21.5s13.371-18.5,19.019-42.5s13.147-68.83,13.147-68.83"/>
</svg>
