<?xml version="1.0" encoding="utf-8"?>
<!-- Generator: Adobe Illustrator 14.0.0, SVG Export Plug-In . SVG Version: 6.00 Build 43363)  -->
<!DOCTYPE svg PUBLIC "-//W3C//DTD SVG 1.1//EN" "http://www.w3.org/Graphics/SVG/1.1/DTD/svg11.dtd">
<svg version="1.1" id="wingRsvg" xmlns="http://www.w3.org/2000/svg" xmlns:xlink="http://www.w3.org/1999/xlink" x="0px" y="0px"
	 width="640px" height="480px" viewBox="0 0 640 480" enable-background="new 0 0 640 480" xml:space="preserve">
<g>
	<path fill="#6B0303" stroke="#000000" stroke-width="5" stroke-linecap="round" stroke-linejoin="round" d="M441.135,97.778
		c-41.209,10.671-134.492,11.108-181.337,26.48c-29.439,9.661,95.854,16.671,152.938,42.783
		c67.66,30.951,130.245,94.708,130.245,94.708S434.612,169.66,298.195,161.5c-56.421-3.375-115.853,6.571-117.626,17.23
		c-3.076,18.493,79.057,15.919,151.312,78.894c72.277,62.989,103.802,157.293,103.802,157.293s-59.987-119.153-163.058-167.771
		c-94.39-44.521-124.073-46.1-128.813-34.518c-4.74,11.582,45.302,17.394,73.268,83.646c24.073,57.035,13.729,143.15,13.729,143.15
		s-11.578-80.556-24.377-115.556c-17.251-47.175-43.023-64.421-67.184-70.63c-23.863-6.135-10.15,47.854-45.125,100.474
		c-10.748,16.171-108.184,92.193-127.61,104.221L-10,488.886c12.314-1.38,118.951-64.563,163.581-58.649
		c34.336,4.546,79.68,32.573,79.68,32.573s39.416-20.758,111.171-25.521c71.754-4.767,122.41,28.409,122.41,28.409
		s-26.448-68.623-2.771-110.604c23.676-41.979,109.64-81.944,109.64-81.944s-64.335-64.97-63.673-119.127
		c0.485-39.9,58.282-97.451,88.679-124.989C563.308,48.288,493.267,84.277,441.135,97.778z"/>
	<path fill="#1A1A1A" stroke="#000000" stroke-width="5" stroke-linecap="round" stroke-linejoin="round" d="M94.124,353.715
		c34.974-52.619,21.262-106.607,45.125-100.474c24.161,6.209,49.934,23.454,67.184,70.63c12.799,35,24.377,115.556,24.377,115.556
		s10.344-86.116-13.729-143.151c-27.966-66.252-78.007-72.064-73.268-83.646c4.74-11.583,34.423-10.004,128.813,34.517
		c103.069,48.617,163.057,167.771,163.057,167.771s-31.523-94.304-103.802-157.293c-72.255-62.974-154.388-60.401-151.312-78.894
		c1.773-10.659,61.206-20.604,117.626-17.23c136.417,8.161,244.785,100.25,244.785,100.25s-62.585-63.757-130.245-94.708
		c-57.084-26.112-182.376-33.123-152.938-42.783c46.845-15.373,140.128-15.809,181.337-26.481
		c52.132-13.5,122.173-49.49,157.585-68.743c10.863-9.84,18.231-15.853,18.231-15.853S503.243,69.405,434.191,82.97
		c-69.047,13.565-184.802,6.831-184.802,6.831s-15.555,43.333-60.229,60.948c-44.675,17.615-72.43,8.824-72.43,8.824
		s-7.412,119.823-27.7,166.541C68.74,372.833-44.236,443.769-44.236,443.769l10.75,14.169
		C-14.06,445.908,83.375,369.886,94.124,353.715z"/>
</g>
</svg>
