<?xml version="1.0" encoding="utf-8"?>
<!-- Generator: Adobe Illustrator 14.0.0, SVG Export Plug-In . SVG Version: 6.00 Build 43363)  -->
<!DOCTYPE svg PUBLIC "-//W3C//DTD SVG 1.1//EN" "http://www.w3.org/Graphics/SVG/1.1/DTD/svg11.dtd">
<svg version="1.1" id="wingLsvg" xmlns="http://www.w3.org/2000/svg" xmlns:xlink="http://www.w3.org/1999/xlink" x="0px" y="0px"
	 width="640px" height="480px" viewBox="0 0 640 480" enable-background="new 0 0 640 480" xml:space="preserve">
<g>
	<path fill="#6B0303" stroke="#000000" stroke-width="5" stroke-linecap="round" stroke-linejoin="round" d="M195.747,97.256
		c41.638,10.782,135.89,11.223,183.222,26.755c29.744,9.761-96.85,16.844-154.527,43.229
		c-68.363,31.273-131.599,95.692-131.599,95.692s109.496-93.047,247.328-101.292c57.009-3.409,117.059,6.639,118.851,17.409
		c3.106,18.686-79.879,16.085-152.885,79.714c-73.028,63.645-104.88,158.929-104.88,158.929s60.612-120.395,164.752-169.515
		c95.37-44.984,125.361-46.579,130.15-34.876c4.789,11.702-45.772,17.574-74.028,84.517
		c-24.323,57.628-13.873,144.639-13.873,144.639s11.699-81.395,24.63-116.756c17.432-47.666,43.473-65.092,67.885-71.364
		c24.109-6.198,10.256,48.352,45.593,101.518C557.223,372.193,653.37,449.443,673,461.595L650,493
		c-12.442-1.396-118.618-65.806-163.713-59.831c-34.693,4.593-80.507,32.913-80.507,32.913s-39.826-20.974-112.325-25.787
		C220.953,435.479,169.771,469,169.771,469s26.722-69.337,2.801-111.753c-23.923-42.415-110.78-82.796-110.78-82.796
		s65.003-65.645,64.335-120.365c-0.491-40.315-58.888-98.464-89.602-126.288C72.305,47.252,143.074,83.616,195.747,97.256z"/>
	<path fill="#1A1A1A" stroke="#000000" stroke-width="5" stroke-linecap="round" stroke-linejoin="round" d="M546.363,355.853
		c-35.337-53.165-21.482-107.716-45.594-101.518c-24.411,6.272-50.452,23.699-67.884,71.364
		c-12.931,35.361-24.63,116.756-24.63,116.756s-10.449-87.011,13.873-144.639c28.256-66.941,78.817-72.814,74.028-84.517
		c-4.789-11.703-34.78-10.108-130.15,34.876c-104.14,49.12-164.752,169.515-164.752,169.515s31.853-95.284,104.879-158.929
		c73.007-63.628,155.993-61.028,152.885-79.714c-1.792-10.769-61.842-20.818-118.85-17.409
		C202.338,169.886,92.843,262.932,92.843,262.932s63.236-64.418,131.599-95.691c57.677-26.383,184.271-33.466,154.527-43.227
		c-47.332-15.533-141.583-15.973-183.222-26.756C143.074,83.616,72.305,47.252,36.524,27.799
		c-10.977-9.942-18.419-16.018-18.419-16.018s114.89,56.808,184.658,70.514c69.763,13.707,186.723,6.901,186.723,6.901
		s15.717,43.785,60.854,61.582c45.139,17.798,73.182,8.915,73.182,8.915s7.489,121.069,27.986,168.271
		c20.501,47.205,133.084,119.447,133.084,119.447l-10.86,14.313C654.103,449.573,557.223,372.192,546.363,355.853z"/>
</g>
</svg>
