<?xml version="1.0" encoding="utf-8"?>
<!-- Generator: Adobe Illustrator 14.0.0, SVG Export Plug-In . SVG Version: 6.00 Build 43363)  -->
<!DOCTYPE svg PUBLIC "-//W3C//DTD SVG 1.1//EN" "http://www.w3.org/Graphics/SVG/1.1/DTD/svg11.dtd">
<svg version="1.1" id="vanper01nowingsvg" xmlns="http://www.w3.org/2000/svg" xmlns:xlink="http://www.w3.org/1999/xlink" x="0px" y="0px"
	 width="1418px" height="1023.99px" viewBox="0 0 1418 1023.99" enable-background="new 0 0 1418 1023.99" xml:space="preserve">
<g>
	<rect x="627.696" y="583.904" fill="#FFFFFF" width="164.313" height="76.591"/>
	<g id="head">
		<g>
			<path fill="#FFFFFF" stroke="#000000" stroke-width="5" stroke-linecap="round" stroke-linejoin="round" d="M852.838,269.623
				c-4.368,18.853-24.128,36.131-24.128,36.131s11.725-18.504,12.111-28.76c0.432-11.458-4.684-18.827-13.853-27.873
				c0.148,3.062,0.162,6.003,0.005,8.757c-2.187,38.294-53.267,72.328-53.267,72.328s24.438-29.308,27.433-46.934
				c2.213-13.025-0.175-23.508-6.028-34.234c-0.265,4.902-1.055,9.675-2.521,14.176c-16.291,49.957-80.144,42.441-80.144,42.441
				s45.425-5.275,48.959-38.082c2.521-23.406-7.83-42.956-31.944-57.953c7.183,11.027,15.116,26.78,13.487,40.779
				c-4.029,34.619-46.529,38.119-46.529,38.119s28.839-9.396,26.828-31.188c-1.67-18.101-13.997-30.511-37.746-36.334
				c2.564,12.757,4.626,27.833,3.307,39.409c-3.889,34.112-34.711,58.7-34.711,58.7s7.035-19.886,8.011-35.771
				c0.829-13.515-1.866-27.064-12.307-41.956c0.14,11.415-0.424,26.499-3.622,37.087c-6.51,21.551-33.045,41.542-33.045,41.542
				s4.587-10.468,7.23-23.033c2.896-13.763,1.909-26.312-3.145-40.896c-1.176,10.782-3.848,31.044-8.076,40.019
				c-7.976,16.919-29.561,25.919-29.561,25.919s7.948-10.52,12.161-20.456c4.693-11.07,5.509-19.496,4.563-31.728
				c-0.813,3.064-1.705,5.787-2.681,7.889c-7.209,15.545-29.561,25.92-29.561,25.92s6.2-7.417,10.162-17.457
				c4.501-11.407,3.964-24.354,0.956-37.94c-15.722,33.062-30.554,97.345-12.951,216.555c1.713,2.185,3.183,11.55,15.815,69.005
				c5.096,23.17,29.583,32.185,55.604,55.144c28.502,25.146,50.869,45.225,72.326,45.225c0,0,2.102-3.918,3.932-3.912
				c1.83,0.007,3.932,3.912,3.932,3.912c25.117,0,45.645-18.28,74.738-43.672c24.43-21.322,47.215-29.363,53.191-56.695
				c13.27-60.668,13.97-66.905,16.135-68.867C872.258,367.114,864.717,306.407,852.838,269.623z"/>
			<path fill="#FFFFFF" stroke="#000000" stroke-width="5" stroke-linecap="round" stroke-linejoin="round" d="M536.229,339.86
				c-1.186-0.354-7.695-1.276-15.9-8.095c-43.328-35.998,3.109,43.786,8.688,61.904c8.261,26.825,18.715,52.688,25.84,63.816
				c-1.102-12.314-2.59-27.022-4.604-44.09C546.778,383.957,541.083,358.268,536.229,339.86z"/>
			<path fill="#2B2B2B" stroke="#000000" stroke-width="5" stroke-linecap="round" stroke-linejoin="round" d="M883.406,339.916
				c-0.021,0.006-0.046,0.013-0.046,0.013S938.522,119.706,717.696,110.5l0.004-0.3c-2.636-0.007-5.224,0.023-7.787,0.071
				c-2.564-0.048-5.151-0.079-7.787-0.071l0.004,0.3c-220.828,9.206-165.663,229.428-165.663,229.428s-0.088-0.022-0.235-0.067
				c4.853,18.407,10.548,44.097,14.022,73.536c2.015,17.067,3.503,31.775,4.604,44.091c0.49,0.767,0.98,1.501,1.47,2.17
				c3.744,5.13,4.87,3.821,5.907,5.145c-17.603-119.21-2.771-183.493,12.95-216.555c-0.569-2.577-1.221-5.174-1.951-7.791
				c0.73,2.617,1.382,5.214,1.951,7.791c5.772-12.14,8.659-18.209,8.659-18.209s-2.887,6.069-8.659,18.209
				c3.009,13.587,3.546,26.533-0.956,37.94c-3.962,10.04-10.161,17.456-10.161,17.456s22.352-10.375,29.561-25.919
				c0.975-2.102,1.866-4.824,2.68-7.889c-0.073-0.952-0.109-1.428-0.109-1.428s0.036,0.476,0.109,1.428
				c4.051-15.264,6.097-39.191,6.097-39.191s-2.046,23.928-6.097,39.191c0.946,12.231,0.132,20.656-4.563,31.727
				c-4.213,9.938-12.161,20.457-12.161,20.457s21.585-9,29.56-25.92c4.229-8.975,6.901-29.236,8.077-40.019
				c-0.714-2.061-1.508-4.162-2.385-6.313c0.877,2.151,1.671,4.253,2.385,6.313c0.233-2.137,0.352-3.205,0.352-3.205
				s-0.117,1.068-0.352,3.205c5.054,14.585,6.039,27.134,3.145,40.896c-2.645,12.565-7.23,23.033-7.23,23.033
				s26.535-19.991,33.045-41.542c3.198-10.588,3.762-25.672,3.622-37.087c-0.915-1.306-1.373-1.959-1.373-1.959
				s0.458,0.653,1.373,1.959c-0.111-9.294-0.688-16.158-0.688-16.158s0.576,6.864,0.688,16.158
				c10.439,14.892,13.136,28.441,12.307,41.956c-0.976,15.885-8.011,35.77-8.011,35.77s30.822-24.588,34.711-58.7
				c1.319-11.576-0.741-26.652-3.307-39.409c-1.123-0.275-1.685-0.413-1.685-0.413s0.562,0.138,1.685,0.413
				c-2.909-14.471-6.465-25.956-6.465-25.956s3.556,11.485,6.465,25.956c23.749,5.823,36.076,18.233,37.746,36.334
				c2.011,21.792-26.828,31.188-26.828,31.188s42.5-3.5,46.529-38.119c1.629-13.999-6.305-29.752-13.487-40.779
				c-6.611-4.112-14.252-7.884-22.952-11.297c8.7,3.413,16.341,7.185,22.952,11.297c-2.745-4.215-4.118-6.323-4.118-6.323
				s1.373,2.108,4.118,6.323c24.114,14.997,34.466,34.547,31.944,57.953c-3.534,32.807-48.959,38.083-48.959,38.083
				s63.853,7.516,80.144-42.441c1.468-4.501,2.258-9.273,2.521-14.176c-2.074-3.801-3.111-5.7-3.111-5.7s1.037,1.899,3.111,5.7
				c1.823-33.924-21.648-74.104-21.648-74.104s23.472,40.18,21.648,74.104c5.854,10.727,8.241,21.209,6.028,34.234
				c-2.992,17.625-27.433,46.934-27.433,46.934s51.08-34.034,53.267-72.328c0.157-2.754,0.145-5.695-0.005-8.757
				c-0.596-0.589-0.895-0.883-0.895-0.883s0.299,0.294,0.895,0.883c-1.345-27.776-13.941-65.585-13.941-65.585
				s12.598,37.809,13.941,65.585c9.169,9.046,14.283,16.415,13.853,27.873c-0.389,10.256-12.111,28.76-12.111,28.76
				s19.76-17.278,24.128-36.131c-1.989-6.163-2.983-9.244-2.983-9.244s0.994,3.081,2.983,9.244c0.692-2.985,1.012-6.009,0.791-9.011
				c-1.17-15.905-13.486-41.271-13.486-41.271s12.316,25.366,13.486,41.271c0.221,3.002-0.099,6.025-0.791,9.011
				c11.879,36.784,19.42,97.491,5.071,195.315c1.029-0.932,2.39-0.898,5.589-5.281c0.555-0.761,1.11-1.596,1.669-2.479
				c1.113-12.651,2.645-27.923,4.753-45.781C873.269,383.037,878.676,358.159,883.406,339.916z"/>
			<path fill="#FFFFFF" stroke="#000000" stroke-width="5" stroke-linecap="round" stroke-linejoin="round" d="M899.496,331.766
				c-8.45,7.831-15.616,8.021-16.09,8.149c-4.73,18.243-10.139,43.121-13.486,71.481c-2.108,17.857-3.64,33.13-4.753,45.78
				c9.429-14.957,19.193-46.808,25.641-63.508C897.636,375.984,941.668,292.685,899.496,331.766z"/>
		</g>
		<path fill="#C1272D" d="M667.001,562.557c0,0,25.5-15.455,31-15.455s6.5,4.771,10.5,4.771s6.75-4.771,11.25-4.771
			s31.375,13.279,31.375,13.279s-25.375,11.387-41.625,11.387C693.249,571.768,667.001,562.557,667.001,562.557z"/>
		<path fill="none" stroke="#000000" stroke-width="5" stroke-linecap="round" stroke-linejoin="round" d="M661.276,564.352
			c0,0,26.224-8,49.225-8c23,0,52.049,8,52.049,8"/>
		<path fill="#E6E6E6" d="M575.833,369.737c8.484,27.28,28.73,54.426,50.054,59.413c21.325,4.986,60.584-10.474,67.309-21.518
			c17.8-29.24-25.314-62.104-71.46-70.868C565.15,326.018,571.474,355.717,575.833,369.737z"/>
		<path fill="#E6E6E6" d="M844.593,368.737c-8.483,27.28-28.729,54.426-50.055,59.413c-21.324,4.986-60.584-10.474-67.308-21.518
			c-17.801-29.24,25.313-62.104,71.46-70.868C855.276,325.018,848.952,354.717,844.593,368.737z"/>
		<path fill="none" stroke="#000000" stroke-width="5" stroke-linecap="round" stroke-linejoin="round" d="M578.906,363.874
			c0,0,22.938,22.585,45.424,26.306c22.486,3.723,59.213,2.561,59.213,2.561"/>
		<path fill="none" stroke="#000000" stroke-width="5" stroke-linecap="round" stroke-linejoin="round" d="M840.544,363.874
			c0,0-22.938,22.585-45.425,26.306c-22.485,3.723-59.214,2.561-59.214,2.561"/>
		<path fill="none" stroke="#000000" stroke-width="5" stroke-linecap="round" stroke-linejoin="round" d="M709.328,394.352
			c0,0-4.639,49.915-15.773,58.662c-16.554,13.004-32.522,44.172-24.289,47.338c8.234,3.166,14.277-9.834,27.593-3.334
			c12.364,6.036,15.207,5.668,18.553,5.334"/>
		<path fill="#1A1A1A" stroke="#000000" stroke-width="5" stroke-linecap="round" stroke-linejoin="round" d="M593.241,315.471
			c12.544-0.675,86.553,31.313,89.062,38.839c1.729,5.188-64.447-25.088-89.062-25.088c-9.408,0-17.563,3.355-20.07,2.618
			S580.697,316.146,593.241,315.471z"/>
		<path fill="#1A1A1A" stroke="#000000" stroke-width="5" stroke-linecap="round" stroke-linejoin="round" d="M821.878,315.471
			c-12.543-0.675-86.553,31.313-89.062,38.839c-1.729,5.188,64.447-25.088,89.062-25.088c9.408,0,17.563,3.355,20.07,2.618
			C844.458,331.104,834.423,316.146,821.878,315.471z"/>
		<path fill="#E6E6E6" d="M612.392,485.909c6.922,8.172,12.561,31.544,14.308,42.535c1.747,10.993,2.495,36.729-9.153,39.477
			c-11.647,2.748-29.544-25.402-32.614-38.881c-3.467-15.225-12.647-59.994-7.405-64.116
			C582.767,460.801,605.471,477.739,612.392,485.909z"/>
		<path fill="#E6E6E6" d="M809.528,487.409c-6.92,8.172-12.56,31.544-14.308,42.535c-1.745,10.993-2.493,36.729,9.154,39.477
			s29.544-25.402,32.613-38.881c3.467-15.225,12.647-59.994,7.405-64.116C839.154,462.301,816.45,479.239,809.528,487.409z"/>
	</g>
	<g>
		<path fill="#E6E6E6" stroke="#000000" stroke-width="5" stroke-linecap="round" stroke-linejoin="round" d="M687.334,664.375
			l22.754-8.86l-0.254-0.099l0.254,0.099l0.254-0.099v-0.917l-46.661-18.878c-3.671,1.74-9.733,5.321-16.44,12.174l15.595,26.121
			L687.334,664.375"/>
		<path fill="#E6E6E6" stroke="#000000" stroke-width="5" stroke-linecap="round" stroke-linejoin="round" d="M687.334,664.375
			l-24.5,9.541l-15.595-26.121c-15.828,16.172-35.238,50.569-35.238,122.038c0,5.514,0,10.843,0,16h75.333V664.375L687.334,664.375z
			"/>
		<path fill="#2B2B2B" stroke="#000000" stroke-width="5" stroke-linecap="round" stroke-linejoin="round" d="M687.334,785.833
			h-75.333c0,5.533,0,10.865,0,16h98.341v-16H687.334"/>
		<path fill="#2B2B2B" stroke="#000000" stroke-width="5" stroke-linecap="round" stroke-linejoin="round" d="M733.334,785.833
			h-22.992v16h98.325c0-5.134,0-10.465,0-16H733.334"/>
		<polygon fill="#E6E6E6" stroke="#000000" stroke-width="5" stroke-linecap="round" stroke-linejoin="round" points="
			733.334,785.833 733.334,664.567 710.342,655.613 710.342,785.833 		"/>
		<polygon fill="#E6E6E6" stroke="#000000" stroke-width="5" stroke-linecap="round" stroke-linejoin="round" points="
			687.334,664.375 687.334,785.833 710.342,785.833 710.342,655.613 710.088,655.515 		"/>
		<path fill="#E6E6E6" stroke="#000000" stroke-width="5" stroke-linecap="round" stroke-linejoin="round" d="M733.334,664.567
			v121.266h75.333c0-4.952,0-10.051,0-15.334c0-79.709-18.917-112.972-33.314-126.751l-18.011,30.168L733.334,664.567z"/>
		<path fill="#2B2B2B" stroke="#000000" stroke-width="5" stroke-linecap="round" stroke-linejoin="round" d="M710.342,801.833
			v114.666h98.325c0-15.494,0-48.948,0-114.666H710.342z"/>
		<path fill="#808080" stroke="#000000" stroke-width="5" stroke-linecap="round" stroke-linejoin="round" d="M775.353,643.748
			c14.397,13.779,33.314,47.042,33.314,126.751c0,5.283,0,10.382,0,15.334"/>
		<path fill="#2B2B2B" stroke="#000000" stroke-width="5" stroke-linecap="round" stroke-linejoin="round" d="M612.001,801.833
			c0,67.288,0,100.852,0,114.666h98.341V801.833H612.001z"/>
		<path fill="#E6E6E6" stroke="#000000" stroke-width="5" stroke-linecap="round" stroke-linejoin="round" d="M733.334,664.567
			l24.008,9.349l18.011-30.168c-5.97-5.714-11.162-8.083-13.905-9.016l-51.104,19.767v0.917v0.197L733.334,664.567"/>
		<path fill="#808080" stroke="#000000" stroke-width="5" stroke-linecap="round" stroke-linejoin="round" d="M612.001,785.833
			c0-5.157,0-10.486,0-16c0-71.469,19.41-105.866,35.238-122.038"/>
	</g>
	<g>
		<path fill="#1A1A1A" stroke="#000000" stroke-width="5" stroke-linecap="round" stroke-linejoin="round" d="M667.319,634.508
			c0,0-16-22-18-38s-6-35.844-6-35.844s-57-2.156-80-43.156c-0.409-0.729-0.764-1.45-1.085-2.167
			c4.99,34.967,18.907,48.241,31.96,74.063c9.912,19.605,12.658,35.862,27.792,44.438c0,0-73.333-3.999-73.333,70.333
			c0,74.334,0,190.666,0,190.666s-10.668,12-29.334,14.668c-18.666,2.666-28.666,7.332-28.666,7.332h121.333
			c0-15.852,0-57.699,0-146.666C611.986,649.509,667.319,634.508,667.319,634.508z"/>
		<path fill="#1A1A1A" stroke="#000000" stroke-width="5" stroke-linecap="round" stroke-linejoin="round" d="M906.66,909.508
			c-18.667-2.668-29.333-14.668-29.333-14.668s0-116.332,0-190.666c0-74.332-73.334-70.333-73.334-70.333
			c15.133-8.575,17.881-24.832,27.791-44.438c12.804-25.326,26.438-38.582,31.665-72.078c-0.034,0.062-0.061,0.122-0.095,0.184
			c-23,41-80,44.156-80,44.156s-4,18.844-6,34.844s-18,38-18,38s49.298,7.666,49.298,136.332c0,86.775,0,128.213,0,146h126.675
			C935.327,916.84,925.327,912.174,906.66,909.508z"/>
	</g>
</g>
</svg>
