<?xml version="1.0" encoding="utf-8"?>
<!-- Generator: Adobe Illustrator 14.0.0, SVG Export Plug-In . SVG Version: 6.00 Build 43363)  -->
<!DOCTYPE svg PUBLIC "-//W3C//DTD SVG 1.1//EN" "http://www.w3.org/Graphics/SVG/1.1/DTD/svg11.dtd">
<svg version="1.1" id="圖層_1" xmlns="http://www.w3.org/2000/svg" xmlns:xlink="http://www.w3.org/1999/xlink" x="0px" y="0px"
	 width="1418px" height="1023.99px" viewBox="0 0 1418 1023.99" enable-background="new 0 0 1418 1023.99" xml:space="preserve">
<g>
	<path fill="#6B0303" stroke="#000000" stroke-width="5" stroke-linecap="round" stroke-linejoin="round" d="M894.908,568.936
		c-9.818,2.227-31.875,1.662-43.06,4.961c-7.028,2.072,22.541,4.627,35.85,11.209c15.773,7.803,30.113,23.322,30.113,23.322
		s-24.96-22.547-57.152-25.451c-13.314-1.203-27.436,0.723-27.931,3.23c-0.859,4.35,18.575,4.33,35.207,19.734
		c16.636,15.408,23.413,37.93,23.413,37.93s-13.329-28.6-37.348-40.83c-21.996-11.201-29.001-11.787-30.205-9.084
		c-1.203,2.705,10.585,4.438,16.722,20.301c5.283,13.656,2.221,33.939,2.221,33.939s-2.159-19.127-4.935-27.492
		c-3.741-11.275-9.71-15.537-15.378-17.18c-5.598-1.619-2.742,11.242-11.387,23.432c-2.657,3.746-10.663,8.713-15.342,11.418
		l5.331,7.486c2.921-0.238,13.011-2.107,23.52-0.389c8.085,1.32,18.604,8.271,18.604,8.271s9.468-4.625,26.464-5.238
		c16.998-0.613,28.736,7.594,28.736,7.594s-5.761-16.414,0.137-26.168c5.898-9.756,26.507-18.588,26.507-18.588
		s-14.744-15.82-14.2-28.619c0.4-9.43,14.477-22.621,21.859-28.914C924.146,558.109,907.329,566.115,894.908,568.936z"/>
	<path fill="#1A1A1A" stroke="#000000" stroke-width="5" stroke-linecap="round" stroke-linejoin="round" d="M811.039,626.957
		c8.645-12.189,5.789-25.051,11.387-23.432c5.668,1.643,11.637,5.904,15.378,17.18c2.775,8.365,4.935,27.492,4.935,27.492
		s3.063-20.283-2.221-33.939c-6.137-15.863-17.925-17.596-16.722-20.301c1.204-2.703,8.209-2.117,30.205,9.084
		c24.019,12.23,37.348,40.83,37.348,40.83s-6.777-22.521-23.413-37.93c-16.632-15.404-36.066-15.385-35.207-19.734
		c0.495-2.508,14.616-4.434,27.931-3.23c32.192,2.904,57.152,25.451,57.152,25.451s-14.34-15.52-30.113-23.322
		c-13.309-6.582-42.878-9.137-35.85-11.209c11.185-3.299,33.241-2.734,43.06-4.961c12.421-2.82,29.237-10.826,37.746-15.125
		c2.64-2.248,4.424-3.617,4.424-3.617s-27.284,12.479-43.705,15.191c-16.42,2.711-43.738,0.291-43.738,0.291
		s-3.988,10.133-14.676,13.979c-10.688,3.844-17.186,1.566-17.186,1.566s-2.61,28.275-7.741,39.174
		c-5.132,10.9-16.775,14.555-16.775,14.555l2.44,3.426C800.376,635.67,808.382,630.703,811.039,626.957z"/>
</g>
<g>
	<path fill="#6B0303" stroke="#000000" stroke-width="5" stroke-linecap="round" stroke-linejoin="round" d="M524.287,567.941
		c10.14,2.389,32.964,1.99,44.508,5.498c7.255,2.203-23.361,4.598-37.186,11.295c-16.386,7.939-31.354,23.876-31.354,23.876
		s26.015-23.116,59.346-25.853c13.786-1.131,28.38,0.981,28.871,3.579c0.854,4.508-19.255,4.323-36.592,20.121
		c-17.342,15.803-24.544,39.046-24.544,39.046s14.032-29.478,38.985-41.93c22.853-11.404,30.106-11.95,31.329-9.143
		c1.222,2.809-10.99,4.501-17.474,20.861c-5.581,14.085-2.584,35.098-2.584,35.098s2.396-19.771,5.339-28.404
		c3.965-11.634,10.177-15.992,16.055-17.643c5.805-1.63,2.742,11.652,11.584,24.338c2.717,3.897,10.959,9.105,15.776,11.943
		l-5.579,7.699c-3.02-0.271-13.443-2.288-24.33-0.6c-8.377,1.299-19.318,8.4-19.318,8.4s-9.756-4.865-27.337-5.643
		c-17.582-0.777-29.795,7.614-29.795,7.614s6.099-16.933,0.079-27.075c-6.02-10.143-27.268-19.455-27.268-19.455
		s15.388-16.244,14.934-29.49c-0.335-9.76-14.787-23.527-22.373-30.1C494.127,556.495,511.458,564.921,524.287,567.941z"/>
	<path fill="#1A1A1A" stroke="#000000" stroke-width="5" stroke-linecap="round" stroke-linejoin="round" d="M610.571,628.682
		c-8.842-12.686-5.779-25.968-11.584-24.338c-5.878,1.65-12.09,6.009-16.055,17.643c-2.942,8.633-5.339,28.404-5.339,28.404
		s-2.997-21.013,2.584-35.098c6.483-16.36,18.695-18.053,17.474-20.861c-1.223-2.808-8.477-2.262-31.329,9.143
		c-24.954,12.452-38.985,41.93-38.985,41.93s7.203-23.243,24.544-39.046c17.337-15.798,37.446-15.613,36.592-20.121
		c-0.491-2.598-15.085-4.71-28.871-3.579c-33.331,2.736-59.346,25.853-59.346,25.853s14.967-15.937,31.354-23.876
		c13.824-6.697,44.44-9.092,37.186-11.295c-11.544-3.508-34.369-3.109-44.508-5.498c-12.829-3.021-30.16-11.446-38.927-15.965
		c-2.711-2.349-4.546-3.78-4.546-3.78s28.125,13.14,45.092,16.085c16.966,2.945,45.251,0.671,45.251,0.671
		s4.04,10.519,15.065,14.585c11.026,4.068,17.768,1.768,17.768,1.768s2.463,29.275,7.679,40.596
		c5.217,11.32,17.233,15.2,17.233,15.2l-2.554,3.524C621.53,637.787,613.288,632.579,610.571,628.682z"/>
</g>
<g>
	<g id="head">
		<g>
			<path fill="#FFFFFF" stroke="#000000" stroke-width="5" stroke-linecap="round" stroke-linejoin="round" d="M852.838,269.623
				c-4.368,18.853-24.128,36.131-24.128,36.131s11.724-18.504,12.111-28.76c0.432-11.458-4.683-18.827-13.852-27.873
				c0.148,3.062,0.162,6.003,0.005,8.757c-2.187,38.294-53.267,72.328-53.267,72.328s24.439-29.308,27.433-46.934
				c2.212-13.025-0.175-23.508-6.029-34.234c-0.264,4.902-1.054,9.675-2.521,14.176c-16.291,49.957-80.144,42.441-80.144,42.441
				s45.425-5.275,48.959-38.082c2.521-23.406-7.83-42.956-31.944-57.953c7.183,11.027,15.116,26.78,13.487,40.779
				c-4.029,34.619-46.529,38.119-46.529,38.119s28.839-9.396,26.828-31.188c-1.67-18.101-13.997-30.511-37.746-36.334
				c2.564,12.757,4.626,27.833,3.307,39.409c-3.889,34.112-34.711,58.7-34.711,58.7s7.035-19.885,8.01-35.77
				c0.829-13.515-1.866-27.064-12.306-41.956c0.139,11.415-0.424,26.499-3.622,37.087c-6.51,21.551-33.045,41.542-33.045,41.542
				s4.587-10.468,7.23-23.033c2.896-13.763,1.909-26.312-3.144-40.896c-1.176,10.782-3.848,31.044-8.077,40.019
				c-7.975,16.92-29.56,25.92-29.56,25.92s7.948-10.52,12.161-20.457c4.693-11.07,5.509-19.495,4.563-31.727
				c-0.813,3.064-1.705,5.787-2.68,7.889c-7.209,15.545-29.561,25.92-29.561,25.92s6.2-7.416,10.162-17.456
				c4.501-11.407,3.964-24.354,0.956-37.94c-15.721,33.062-30.553,97.345-12.951,216.555c1.713,2.184,3.183,11.549,15.816,69.005
				c5.095,23.17,29.583,32.184,55.604,55.143c28.502,25.146,50.869,45.225,72.326,45.225c0,0,2.102-3.918,3.932-3.912
				s3.932,3.912,3.932,3.912c25.117,0,45.644-18.281,74.738-43.672c24.43-21.322,47.215-29.363,53.191-56.695
				c13.27-60.668,13.97-66.906,16.135-68.868C872.258,367.114,864.717,306.407,852.838,269.623z"/>
			<path fill="#FFFFFF" stroke="#000000" stroke-width="5" stroke-linecap="round" stroke-linejoin="round" d="M536.23,339.86
				c-1.186-0.353-7.696-1.276-15.901-8.094c-43.328-35.998,3.11,43.786,8.689,61.904c8.26,26.825,18.714,52.688,25.839,63.816
				c-1.101-12.314-2.589-27.022-4.604-44.09C546.778,383.957,541.083,358.268,536.23,339.86z"/>
			<path fill="#2B2B2B" stroke="#000000" stroke-width="5" stroke-linecap="round" stroke-linejoin="round" d="M883.406,339.916
				c-0.02,0.006-0.046,0.013-0.046,0.013S938.523,119.706,717.696,110.5l0.004-0.3c-2.636-0.007-5.223,0.023-7.787,0.071
				c-2.564-0.048-5.151-0.079-7.787-0.071l0.004,0.3c-220.828,9.206-165.663,229.428-165.663,229.428s-0.088-0.023-0.236-0.068
				c4.853,18.408,10.548,44.097,14.023,73.537c2.015,17.067,3.503,31.775,4.604,44.09c0.491,0.767,0.981,1.501,1.47,2.17
				c3.744,5.13,4.87,3.822,5.907,5.145c-17.602-119.21-2.77-183.493,12.951-216.555c-0.57-2.577-1.221-5.174-1.952-7.791
				c0.731,2.617,1.382,5.214,1.952,7.791c5.772-12.14,8.659-18.209,8.659-18.209s-2.887,6.069-8.659,18.209
				c3.008,13.587,3.545,26.533-0.956,37.94c-3.962,10.04-10.162,17.456-10.162,17.456s22.352-10.375,29.561-25.92
				c0.975-2.102,1.866-4.824,2.68-7.889c-0.074-0.952-0.11-1.428-0.11-1.428s0.036,0.476,0.11,1.428
				c4.05-15.264,6.096-39.191,6.096-39.191s-2.046,23.928-6.096,39.191c0.946,12.231,0.131,20.656-4.563,31.727
				c-4.213,9.938-12.161,20.457-12.161,20.457s21.585-9,29.56-25.92c4.229-8.975,6.901-29.236,8.077-40.019
				c-0.714-2.061-1.508-4.162-2.385-6.313c0.877,2.151,1.671,4.253,2.385,6.313c0.233-2.137,0.351-3.205,0.351-3.205
				s-0.117,1.068-0.351,3.205c5.053,14.585,6.039,27.134,3.144,40.896c-2.644,12.565-7.23,23.033-7.23,23.033
				s26.535-19.991,33.045-41.542c3.198-10.588,3.761-25.672,3.622-37.087c-0.915-1.306-1.373-1.959-1.373-1.959
				s0.458,0.653,1.373,1.959c-0.112-9.294-0.688-16.158-0.688-16.158s0.576,6.864,0.688,16.158
				c10.439,14.892,13.135,28.441,12.306,41.956c-0.975,15.885-8.01,35.77-8.01,35.77s30.822-24.588,34.711-58.7
				c1.319-11.576-0.742-26.652-3.307-39.409c-1.123-0.275-1.685-0.413-1.685-0.413s0.562,0.138,1.685,0.413
				c-2.909-14.471-6.465-25.956-6.465-25.956s3.556,11.485,6.465,25.956c23.749,5.823,36.076,18.233,37.746,36.334
				c2.011,21.792-26.828,31.188-26.828,31.188s42.5-3.5,46.529-38.119c1.629-13.999-6.305-29.752-13.487-40.779
				c-6.611-4.112-14.252-7.884-22.952-11.297c8.7,3.413,16.341,7.185,22.952,11.297c-2.745-4.215-4.118-6.323-4.118-6.323
				s1.373,2.108,4.118,6.323c24.114,14.997,34.466,34.547,31.944,57.953c-3.534,32.807-48.959,38.082-48.959,38.082
				s63.853,7.516,80.144-42.441c1.468-4.501,2.258-9.273,2.521-14.176c-2.074-3.801-3.111-5.7-3.111-5.7s1.037,1.899,3.111,5.7
				c1.823-33.924-21.648-74.104-21.648-74.104s23.472,40.18,21.648,74.104c5.854,10.727,8.241,21.209,6.029,34.234
				c-2.993,17.626-27.433,46.934-27.433,46.934s51.08-34.034,53.267-72.328c0.157-2.754,0.144-5.695-0.005-8.757
				c-0.596-0.589-0.895-0.883-0.895-0.883s0.299,0.294,0.895,0.883c-1.345-27.776-13.942-65.585-13.942-65.585
				s12.598,37.809,13.942,65.585c9.169,9.046,14.283,16.415,13.852,27.873c-0.388,10.256-12.111,28.76-12.111,28.76
				s19.76-17.278,24.128-36.131c-1.989-6.163-2.984-9.244-2.984-9.244s0.995,3.081,2.984,9.244c0.692-2.985,1.012-6.009,0.791-9.011
				c-1.17-15.905-13.486-41.271-13.486-41.271s12.316,25.366,13.486,41.271c0.221,3.002-0.099,6.025-0.791,9.011
				c11.879,36.784,19.42,97.491,5.071,195.316c1.03-0.932,2.39-0.899,5.589-5.282c0.555-0.76,1.111-1.595,1.669-2.479
				c1.113-12.651,2.645-27.923,4.753-45.781C873.269,383.037,878.676,358.159,883.406,339.916z"/>
			<path fill="#FFFFFF" stroke="#000000" stroke-width="5" stroke-linecap="round" stroke-linejoin="round" d="M899.496,331.766
				c-8.45,7.831-15.616,8.02-16.09,8.149c-4.73,18.243-10.138,43.121-13.486,71.481c-2.108,17.858-3.64,33.13-4.753,45.781
				c9.429-14.957,19.193-46.808,25.641-63.508C897.636,375.984,941.668,292.685,899.496,331.766z"/>
		</g>
		<path fill="#C1272D" d="M667.001,562.557c0,0,25.5-15.455,31-15.455s6.5,4.771,10.5,4.771s6.75-4.771,11.25-4.771
			s31.375,13.279,31.375,13.279s-25.375,11.387-41.625,11.387C693.249,571.768,667.001,562.557,667.001,562.557z"/>
		<path fill="none" stroke="#000000" stroke-width="5" stroke-linecap="round" stroke-linejoin="round" d="M661.276,564.352
			c0,0,26.224-8,49.225-8c23,0,52.049,8,52.049,8"/>
		<path fill="#E6E6E6" d="M575.833,369.737c8.484,27.281,28.73,54.426,50.054,59.413c21.325,4.987,60.584-10.473,67.308-21.517
			c17.8-29.24-25.314-62.104-71.46-70.868C565.15,326.018,571.474,355.717,575.833,369.737z"/>
		<path fill="#E6E6E6" d="M844.593,368.737c-8.484,27.281-28.73,54.426-50.055,59.413c-21.324,4.987-60.584-10.473-67.308-21.517
			c-17.8-29.24,25.313-62.104,71.46-70.868C855.276,325.018,848.952,354.717,844.593,368.737z"/>
		<path fill="none" stroke="#000000" stroke-width="5" stroke-linecap="round" stroke-linejoin="round" d="M578.906,363.874
			c0,0,22.938,22.585,45.424,26.306c22.486,3.722,59.213,2.56,59.213,2.56"/>
		<path fill="none" stroke="#000000" stroke-width="5" stroke-linecap="round" stroke-linejoin="round" d="M840.544,363.874
			c0,0-22.938,22.585-45.425,26.306c-22.485,3.722-59.214,2.56-59.214,2.56"/>
		<path fill="none" stroke="#000000" stroke-width="5" stroke-linecap="round" stroke-linejoin="round" d="M709.328,394.352
			c0,0-4.639,49.915-15.773,58.662c-16.554,13.004-32.523,44.172-24.289,47.338s14.277-9.834,27.592-3.334
			c12.365,6.036,15.207,5.668,18.553,5.334"/>
		<path fill="#1A1A1A" stroke="#000000" stroke-width="5" stroke-linecap="round" stroke-linejoin="round" d="M593.241,315.471
			c12.544-0.675,86.553,31.313,89.062,38.839c1.729,5.188-64.448-25.088-89.062-25.088c-9.408,0-17.562,3.355-20.07,2.618
			S580.697,316.146,593.241,315.471z"/>
		<path fill="#1A1A1A" stroke="#000000" stroke-width="5" stroke-linecap="round" stroke-linejoin="round" d="M821.878,315.471
			c-12.543-0.675-86.553,31.313-89.062,38.839c-1.729,5.188,64.448-25.088,89.062-25.088c9.408,0,17.563,3.355,20.07,2.618
			C844.458,331.104,834.423,316.146,821.878,315.471z"/>
		<path fill="#E6E6E6" d="M612.392,485.909c6.921,8.172,12.56,31.544,14.307,42.535c1.747,10.994,2.495,36.729-9.153,39.477
			s-29.544-25.402-32.614-38.881c-3.467-15.225-12.648-59.994-7.406-64.116C582.767,460.801,605.471,477.739,612.392,485.909z"/>
		<path fill="#E6E6E6" d="M809.528,487.409c-6.92,8.172-12.559,31.544-14.307,42.535c-1.746,10.994-2.494,36.729,9.154,39.477
			c11.647,2.748,29.544-25.402,32.613-38.881c3.467-15.225,12.648-59.994,7.406-64.116
			C839.154,462.301,816.45,479.239,809.528,487.409z"/>
	</g>
	<g>
		<path fill="#E6E6E6" stroke="#000000" stroke-width="5" stroke-linecap="round" stroke-linejoin="round" d="M687.334,664.375
			l22.754-8.86l-0.254-0.099l0.254,0.099l0.254-0.099v-0.917l-46.661-18.878c-3.671,1.74-9.734,5.321-16.441,12.174l15.595,26.121
			L687.334,664.375"/>
		<path fill="#E6E6E6" stroke="#000000" stroke-width="5" stroke-linecap="round" stroke-linejoin="round" d="M687.334,664.375
			l-24.5,9.541l-15.595-26.121c-15.828,16.172-35.238,50.569-35.238,122.038c0,5.514,0,10.843,0,16h75.333V664.375z"/>
		<path fill="#2B2B2B" stroke="#000000" stroke-width="5" stroke-linecap="round" stroke-linejoin="round" d="M687.334,785.833
			h-75.333c0,5.533,0,10.865,0,16h98.341v-16H687.334"/>
		<path fill="#2B2B2B" stroke="#000000" stroke-width="5" stroke-linecap="round" stroke-linejoin="round" d="M733.334,785.833
			h-22.992v16h98.325c0-5.134,0-10.465,0-16H733.334"/>
		<polygon fill="#E6E6E6" stroke="#000000" stroke-width="5" stroke-linecap="round" stroke-linejoin="round" points="
			733.334,785.833 733.334,664.567 710.342,655.613 710.342,785.833 		"/>
		<polygon fill="#E6E6E6" stroke="#000000" stroke-width="5" stroke-linecap="round" stroke-linejoin="round" points="
			687.334,664.375 687.334,785.833 710.342,785.833 710.342,655.613 710.088,655.515 		"/>
		<path fill="#E6E6E6" stroke="#000000" stroke-width="5" stroke-linecap="round" stroke-linejoin="round" d="M733.334,664.567
			v121.266h75.333c0-4.952,0-10.051,0-15.334c0-79.709-18.917-112.972-33.314-126.751l-18.011,30.168L733.334,664.567z"/>
		<path fill="#2B2B2B" stroke="#000000" stroke-width="5" stroke-linecap="round" stroke-linejoin="round" d="M710.342,801.833
			v114.666h98.325c0-15.494,0-48.948,0-114.666H710.342z"/>
		<path fill="#808080" stroke="#000000" stroke-width="5" stroke-linecap="round" stroke-linejoin="round" d="M775.353,643.748
			c14.397,13.779,33.314,47.042,33.314,126.751c0,5.283,0,10.382,0,15.334"/>
		<path fill="#2B2B2B" stroke="#000000" stroke-width="5" stroke-linecap="round" stroke-linejoin="round" d="M612.001,801.833
			c0,67.288,0,100.852,0,114.666h98.341V801.833H612.001z"/>
		<path fill="#E6E6E6" stroke="#000000" stroke-width="5" stroke-linecap="round" stroke-linejoin="round" d="M733.334,664.567
			l24.008,9.349l18.011-30.168c-5.97-5.714-11.162-8.083-13.906-9.016l-51.104,19.767v0.917v0.197L733.334,664.567"/>
		<path fill="#808080" stroke="#000000" stroke-width="5" stroke-linecap="round" stroke-linejoin="round" d="M612.001,785.833
			c0-5.157,0-10.486,0-16c0-71.469,19.41-105.866,35.238-122.038"/>
	</g>
	<g>
		<path fill="#1A1A1A" stroke="#000000" stroke-width="5" stroke-linecap="round" stroke-linejoin="round" d="M667.319,634.508
			c0,0-16-22-18-38s-6-35.844-6-35.844s-57-2.156-80-43.156c-0.409-0.729-0.763-1.45-1.085-2.167
			c4.991,34.967,18.908,48.241,31.96,74.062c9.912,19.606,12.659,35.863,27.792,44.438c0,0-73.333-3.999-73.333,70.333
			c0,74.334,0,190.666,0,190.666s-10.668,12-29.334,14.668c-18.666,2.666-28.666,7.332-28.666,7.332h121.333
			c0-15.852,0-57.699,0-146.666C611.986,649.509,667.319,634.508,667.319,634.508z"/>
		<path fill="#1A1A1A" stroke="#000000" stroke-width="5" stroke-linecap="round" stroke-linejoin="round" d="M906.66,909.508
			c-18.667-2.668-29.333-14.668-29.333-14.668s0-116.332,0-190.666c0-74.332-73.334-70.333-73.334-70.333
			c15.133-8.575,17.881-24.832,27.791-44.438c12.804-25.326,26.438-38.582,31.665-72.078c-0.034,0.062-0.06,0.122-0.094,0.184
			c-23,41-80,44.156-80,44.156s-4,18.844-6,34.844s-18,38-18,38s49.297,7.666,49.297,136.332c0,86.775,0,128.213,0,146h126.675
			C935.327,916.84,925.327,912.174,906.66,909.508z"/>
	</g>
</g>
</svg>
